{"title":"Open Road 2013 DVDRip XViD-VH-PROD","uid":8740308,"size":732200993,"categoryP":"video","categoryS":"movies","magnet":"?xt=urn:btih:4404ddc2a1cba9560c0d40234608125393139716&amp;dn=Open+Road+2013+DVDRip+XViD-VH-PROD&amp;tr=udp%3A%2F%2Ftracker.openbittorrent.com%3A80&amp;tr=udp%3A%2F%2Fopen.demonii.com%3A1337&amp;tr=udp%3A%2F%2Ftracker.coppersurfer.tk%3A6969&amp;tr=udp%3A%2F%2Fexodus.desync.com%3A6969","seeders":1,"leechers":1,"uploader":"ValidusVyto","files":-1,"time":1374766895,"description":"_______ Visit us at our Semi Public Bittorrent Community ________\n    &lt;a href=&quot;\nhttp://p2pdl.com&quot; rel=&quot;nofollow&quot; target=&quot;_NEW&quot;&gt;\nhttp://p2pdl.com&lt;/a&gt;  _____________________________ &lt;a href=&quot; http://p2pdl.com&quot; rel=&quot;nofollow&quot; target=&quot;_NEW&quot;&gt; http://p2pdl.com&lt;/a&gt;\n\nOpen Road 2013 DVDRip XViD-VH-PROD\n\nAngie, a young Brazilian artist, abandons her old life and embarks on a journey around the country. Running from her past, and searching for her foundation in life, Angie finds not only herself but love in its many forms.\n &lt;a href=&quot;\nhttp://www.imdb.com/title/tt1922679/&quot; rel=&quot;nofollow&quot; target=&quot;_NEW&quot;&gt;\nhttp://www.imdb.com/title/tt1922679/&lt;/a&gt;\n\nGeneral\nFormat                                   : AVI\nFormat/Info                              : Audio Video Interleave\nFile size                                : 698 MiB\nDuration                                 : 1h 25mn\nOverall bit rate mode                    : Variable\nOverall bit rate                         : 1 145 Kbps\n\nVideo\nFormat settings, Matrix                  : Default (H.263)\nMuxing mode                              : Packed bitstream\nCodec ID                                 : XVID\nCodec ID/Hint                            : XviD\nDuration                                 : 1h 25mn\nBit rate                                 : 996 Kbps\nWidth                                    : 640 pixels\nHeight                                   : 272 pixels\nDisplay aspect ratio                     : 2.35:1\nFrame rate                               : 23.976 fps\nBit depth                                : 8 bits\nScan type                                : Progressive\nStream size                              : 608 MiB (87%)\nWriting library                          : XviD 64\n\nAudio\nFormat                                   : MPEG Audio\nFormat profile                           : Layer 3\nMode                                     : Joint stereo\nMode extension                           : MS Stereo\nBit rate mode                            : Variable\nBit rate                                 : 135 Kbps\nChannel(s)                               : 2 channels\nSampling rate                            : 48.0 KHz\nStream size                              : 82.8 MiB (12%)\nAlignment                                : Aligned on interleaves\nInterleave, duration                     : 24 ms (0.58 video frame)\nInterleave, preload duration             : 130 ms\n &lt;a href=&quot;\nhttp://ultraimg.com/images/RXeIl.png&quot; rel=&quot;nofollow&quot; target=&quot;_NEW&quot;&gt;\nhttp://ultraimg.com/images/RXeIl.png&lt;/a&gt; &lt;a href=&quot;\nhttp://ultraimg.com/images/VEpBZ.png&quot; rel=&quot;nofollow&quot; target=&quot;_NEW&quot;&gt;\nhttp://ultraimg.com/images/VEpBZ.png&lt;/a&gt; &lt;a href=&quot;\nhttp://ultraimg.com/images/7WAi.png&quot; rel=&quot;nofollow&quot; target=&quot;_NEW&quot;&gt;\nhttp://ultraimg.com/images/7WAi.png&lt;/a&gt; &lt;a href=&quot;\nhttp://ultraimg.com/images/qrT6f.png&quot; rel=&quot;nofollow&quot; target=&quot;_NEW&quot;&gt;\nhttp://ultraimg.com/images/qrT6f.png&lt;/a&gt; &lt;a href=&quot;\nhttp://ultraimg.com/images/43I6g.png&quot; rel=&quot;nofollow&quot; target=&quot;_NEW&quot;&gt;\nhttp://ultraimg.com/images/43I6g.png&lt;/a&gt; &lt;a href=&quot;\nhttp://ultraimg.com/images/XHWdM.png&quot; rel=&quot;nofollow&quot; target=&quot;_NEW&quot;&gt;\nhttp://ultraimg.com/images/XHWdM.png&lt;/a&gt;","torrent":{"xt":"urn:btih:4404ddc2a1cba9560c0d40234608125393139716","amp;dn":"Open+Road+2013+DVDRip+XViD-VH-PROD","amp;tr":["udp%3A%2F%2Ftracker.openbittorrent.com%3A80","udp%3A%2F%2Fopen.demonii.com%3A1337","udp%3A%2F%2Ftracker.coppersurfer.tk%3A6969","udp%3A%2F%2Fexodus.desync.com%3A6969"],"infoHash":"4404ddc2a1cba9560c0d40234608125393139716","infoHashBuffer":{"type":"Buffer","data":[68,4,221,194,161,203,169,86,12,13,64,35,70,8,18,83,147,19,151,22]},"announce":[],"urlList":[]}}